<?xml version="1.0" standalone="no"?>
<!DOCTYPE svg PUBLIC "-//W3C//DTD SVG 20010904//EN"
 "http://www.w3.org/TR/2001/REC-SVG-20010904/DTD/svg10.dtd">
<svg version="1.0" xmlns="http://www.w3.org/2000/svg"
 width="250px" height="250px" viewBox="0 0 500.000000 500.000000"
 preserveAspectRatio="xMidYMid meet">

<g transform="translate(0.000000,500.000000) scale(0.100000,-0.100000)"
fill="#000000" stroke="none">
<path d="M2555 3780 c-8 -49 -60 -207 -74 -224 -5 -6 -12 -22 -16 -36 -4 -14
-13 -38 -21 -55 -7 -16 -17 -48 -22 -70 -5 -22 -14 -39 -19 -38 -6 1 -16 -10
-22 -25 -21 -51 37 -159 136 -254 l39 -38 64 65 c54 55 61 66 50 79 -10 13
-10 19 0 31 38 45 80 130 74 149 -3 12 -30 77 -59 146 -30 69 -65 160 -79 203
-36 112 -42 119 -51 67z"/>
<path d="M2240 3649 c-47 -23 -110 -58 -140 -77 -80 -52 -213 -164 -257 -219
-21 -26 -48 -59 -60 -72 -39 -44 -111 -203 -129 -286 -26 -121 -23 -246 8
-320 14 -33 36 -100 48 -150 38 -152 99 -257 219 -375 147 -144 302 -210 498
-210 106 0 114 7 42 41 -37 18 -93 34 -138 40 -179 23 -408 196 -501 379 -53
105 -74 288 -46 400 45 173 95 253 266 420 96 95 135 140 159 187 17 34 31 65
31 69 0 3 -17 -11 -38 -32 -21 -22 -85 -80 -143 -130 -164 -142 -277 -297
-329 -448 l-16 -50 2 95 c2 81 7 105 37 175 85 202 209 336 438 473 138 83
159 98 159 118 0 21 -20 16 -110 -28z"/>
<path d="M2780 3670 c0 -18 44 -57 91 -80 24 -13 63 -36 86 -51 23 -16 45 -29
48 -29 4 0 32 -20 63 -44 75 -59 181 -169 220 -230 63 -98 127 -307 120 -392
-3 -34 -6 -30 -42 62 -71 182 -176 311 -405 496 -18 15 -51 18 -51 6 0 -25 78
-121 156 -193 189 -173 274 -345 274 -557 0 -111 -11 -160 -65 -273 -75 -160
-226 -288 -408 -346 -71 -23 -102 -24 -199 -5 -208 41 -346 104 -471 217 l-58
52 -20 -22 c-18 -19 -19 -24 -7 -39 40 -51 141 -128 233 -177 39 -20 77 -43
85 -50 25 -22 133 -54 228 -66 201 -27 385 50 567 235 98 100 151 199 196 366
17 63 37 137 45 165 8 27 14 88 14 136 0 330 -259 674 -606 805 -70 26 -94 30
-94 14z"/>
<path d="M2786 3164 c-21 -41 -67 -91 -170 -187 -207 -194 -268 -257 -297
-312 -36 -67 -44 -136 -25 -200 9 -27 16 -61 16 -74 0 -30 53 -81 117 -111 39
-19 65 -24 138 -24 105 0 170 23 225 79 33 34 33 35 15 55 -17 19 -17 21 0 67
25 66 23 156 -6 219 -15 32 -53 78 -107 130 -76 73 -82 81 -67 94 10 8 20 22
24 32 5 15 22 3 99 -71 102 -98 148 -177 159 -272 3 -27 9 -49 13 -49 16 0 39
39 55 94 28 96 17 187 -37 326 -50 126 -106 248 -117 254 -4 3 -20 -20 -35
-50z"/>
<path d="M2305 3198 c-2 -7 -9 -31 -16 -53 -11 -38 -59 -149 -81 -189 -5 -10
-26 -62 -45 -115 -29 -81 -34 -104 -28 -148 6 -53 42 -135 61 -140 7 -2 15 25
21 70 9 61 18 84 52 135 37 54 167 183 206 205 8 4 15 12 15 17 0 4 -29 39
-65 77 -35 37 -74 87 -86 111 -22 45 -27 49 -34 30z"/>
<path d="M4092 1748 c-7 -7 -12 -21 -11 -32 1 -18 2 -17 8 4 9 34 56 41 66 10
4 -12 9 -19 12 -17 2 3 0 15 -7 26 -12 23 -49 28 -68 9z"/>
<path d="M4125 1730 c3 -5 8 -10 11 -10 2 0 4 5 4 10 0 6 -5 10 -11 10 -5 0
-7 -4 -4 -10z"/>
<path d="M1604 1608 c-59 -116 -134 -302 -125 -311 19 -19 56 -3 66 31 l9 32
81 0 81 0 17 -35 c14 -30 22 -35 51 -35 l35 0 -38 88 c-75 171 -130 282 -140
282 -6 0 -23 -24 -37 -52z m59 -111 c8 -23 18 -50 22 -59 6 -16 1 -18 -44 -18
-58 0 -61 6 -31 68 11 22 20 46 20 52 0 23 19 -1 33 -43z"/>
<path d="M3113 1647 c-9 -11 -20 -34 -78 -162 -33 -71 -75 -177 -75 -187 0 -4
13 -8 29 -8 25 0 31 6 41 35 l12 35 77 0 77 0 17 -35 c12 -25 23 -35 40 -35
13 0 26 3 29 6 4 3 -7 37 -23 76 -16 39 -29 74 -29 79 0 13 -90 198 -99 204
-5 2 -13 -1 -18 -8z m36 -153 c11 -31 21 -60 21 -65 0 -5 -23 -9 -51 -9 -45 0
-50 2 -44 18 4 9 15 38 24 64 9 26 19 48 22 48 3 0 16 -25 28 -56z"/>
<path d="M3476 1622 c-14 -23 -26 -44 -26 -47 0 -3 -27 -65 -60 -137 -33 -71
-60 -134 -60 -139 0 -5 14 -9 31 -9 25 0 32 6 45 35 l14 35 81 0 80 0 15 -35
c12 -31 19 -35 49 -35 19 0 35 2 35 4 0 2 -9 21 -20 43 -11 21 -43 92 -72 159
-29 66 -60 131 -69 144 l-16 24 -27 -42z m52 -133 c12 -28 22 -55 22 -60 0 -5
-23 -9 -51 -9 -45 0 -50 2 -44 18 4 9 14 36 22 60 8 23 18 42 21 42 4 0 17
-23 30 -51z"/>
<path d="M3760 1655 c-6 -138 -5 -344 2 -357 10 -20 17 -22 38 -8 11 7 16 36
20 113 l5 104 94 -108 c52 -60 101 -109 108 -109 20 0 19 343 -2 360 -8 7 -22
10 -30 6 -12 -4 -15 -26 -15 -111 0 -58 -3 -105 -7 -105 -5 1 -28 25 -52 55
-56 69 -161 172 -161 160z"/>
<path d="M1130 1471 l0 -181 25 0 c29 0 45 26 45 74 0 34 2 36 34 36 31 0 37
-5 74 -67 69 -117 112 -153 183 -153 84 0 109 23 37 34 -34 6 -53 18 -93 59
-27 29 -61 74 -75 100 -23 45 -24 49 -7 58 25 15 47 63 47 104 0 26 -9 45 -34
73 l-34 37 -101 3 -101 4 0 -181z m193 87 c17 -23 18 -31 8 -56 -7 -17 -22
-33 -34 -36 -35 -9 -95 -7 -102 4 -4 6 -3 35 1 66 l6 55 51 -3 c41 -2 54 -8
70 -30z"/>
<path d="M1896 1619 c-3 -17 -6 -96 -6 -175 0 -127 2 -144 18 -153 35 -18 52
4 52 68 0 41 5 62 16 72 12 9 17 10 23 1 4 -6 31 -41 60 -76 41 -50 61 -66 88
-71 20 -3 39 -3 44 2 4 4 -30 50 -77 101 l-85 93 49 57 c28 31 59 66 71 76 29
26 26 36 -10 36 -26 0 -43 -13 -100 -72 -38 -40 -68 -76 -69 -80 0 -5 -4 -8
-8 -8 -4 0 -8 35 -7 78 0 76 0 77 -26 80 -22 3 -27 -2 -33 -29z"/>
<path d="M2228 1633 c-9 -35 2 -43 58 -43 l53 0 -2 -145 c-2 -118 1 -147 12
-155 9 -5 22 -5 33 1 16 9 18 25 18 154 l0 144 53 3 c48 3 52 5 55 31 l3 27
-139 0 c-125 0 -140 -2 -144 -17z"/>
<path d="M2600 1558 c0 -52 -3 -129 -6 -169 -9 -102 2 -113 100 -104 138 14
206 76 206 187 -1 116 -66 171 -212 176 l-88 4 0 -94z m181 16 c31 -16 59 -66
59 -105 0 -35 -31 -89 -61 -104 -15 -8 -48 -15 -74 -15 l-45 0 0 120 0 120 45
0 c26 0 60 -7 76 -16z"/>
</g>
</svg>
